<svg width="231" height="194" viewBox="0 0 231 194" fill="none" xmlns="http://www.w3.org/2000/svg">
<g filter="url(#filter0_bd_2_593)">
<path d="M143.739 170.922L222.534 45.1207C235.096 25.0658 219.393 0 194.272 0H36.6827C11.5625 0 -4.14052 25.0658 8.42086 45.1207L87.2082 170.922C99.7746 190.972 131.173 190.972 143.739 170.922Z" fill="url(#paint0_linear_2_593)"/>
<g filter="url(#filter1_i_2_593)">
<path fill-rule="evenodd" clip-rule="evenodd" d="M40.7167 45.3027C40.7167 55.4211 48.2795 63.4348 59.1664 63.4256L102.396 63.3956C118.007 63.3956 128.114 68.6506 128.114 84.1023V131.949C128.114 134.103 127.804 135.523 127.219 137.154C124.5 144.741 112.171 148.12 105.321 140.106C103.844 138.377 102.761 135.286 102.751 131.735L102.614 87.5196C102.614 85.7303 102.451 82.8426 102.921 81.1685C104.213 76.5653 112.204 77.3482 112.204 82.2923V126.52C112.204 132.603 118.524 133.812 118.524 126.922L118.732 84.4569C118.754 79.4345 117.022 74.822 111.581 73.0167C106.208 71.2297 100.3 72.8854 97.6078 77.6752C96.4581 79.7247 96.2782 84.5881 96.2882 87.112L96.3432 132.645C96.3482 136.691 97.5853 140.52 100.484 143.765C106.203 150.162 115.675 152.341 123.323 148.838C130.931 145.354 134.435 139.399 134.435 131.346V87.9226C134.435 82.3752 134.415 76.5791 131.75 71.7018C128.561 65.8665 123.195 61.4106 116.562 59.1746C113.566 58.166 109.172 57.6341 104.721 57.6272L60.9858 57.565C41.1141 57.565 44.1357 34.2447 59.2438 34.2447H172.139C176.847 34.2447 180.946 37.4364 182.818 41.2843C186.22 48.2802 180.626 57.565 171.921 57.565H141.19C141.125 57.565 132.46 50.1063 128.811 48.0775C124.225 45.5238 116.9 43.2256 111.556 43.0851L66.1369 43.1104C58.7715 45.7425 63.0228 48.2456 65.9744 48.72H110.679C126.105 48.72 137.369 63.3956 138.793 63.3956H171.487C180.831 63.3956 190.011 55.8471 190.011 47.1127C190.011 34.9033 181.611 28.4164 169.09 28.4164H60.3335C49.0893 28.4164 40.7167 36.6442 40.7167 45.3027Z" fill="white"/>
<path fill-rule="evenodd" clip-rule="evenodd" d="M164.076 43.092H129.858C141.108 49.0815 135.302 48.72 144.024 48.72C150.852 48.72 157.683 48.72 164.511 48.72C170.672 45.8346 171.554 43.7552 164.076 43.092Z" fill="white"/>
<path d="M66.809 45.8115C66.809 46.2307 66.764 46.6452 66.6766 47.0574C66.5866 47.4696 66.4566 47.8679 66.2817 48.2548C66.1092 48.644 65.8943 49.0101 65.6419 49.3601C65.3894 49.7079 65.102 50.0302 64.7821 50.3273C64.4597 50.6244 64.1098 50.8892 63.7324 51.1218C63.355 51.3543 62.9551 51.5524 62.5353 51.7113C62.1154 51.8725 61.683 51.9945 61.2356 52.0751C60.7908 52.158 60.3409 52.1972 59.886 52.1972C59.4312 52.1972 58.9813 52.158 58.5339 52.0751C58.089 51.9945 57.6567 51.8725 57.2368 51.7113C56.8169 51.5524 56.417 51.3543 56.0396 51.1218C55.6622 50.8892 55.3123 50.6244 54.9899 50.3273C54.6675 50.0302 54.3826 49.7079 54.1302 49.3601C53.8752 49.0101 53.6628 48.644 53.4904 48.2548C53.3154 47.8679 53.1829 47.4696 53.0955 47.0574C53.0055 46.6452 52.963 46.2307 52.963 45.8115C52.963 45.3924 53.0055 44.9779 53.0955 44.5657C53.1829 44.1535 53.3154 43.7552 53.4904 43.3683C53.6628 42.9791 53.8752 42.613 54.1302 42.263C54.3826 41.9152 54.6675 41.5929 54.9899 41.2958C55.3123 40.9987 55.6622 40.7339 56.0396 40.5013C56.417 40.2688 56.8169 40.0707 57.2368 39.9118C57.6567 39.7506 58.089 39.6286 58.5339 39.548C58.9813 39.4651 59.4312 39.4259 59.886 39.4259C60.3409 39.4259 60.7908 39.4651 61.2356 39.548C61.683 39.6286 62.1154 39.7506 62.5353 39.9118C62.9551 40.0707 63.355 40.2688 63.7324 40.5013C64.1098 40.7339 64.4597 40.9987 64.7821 41.2958C65.102 41.5929 65.3894 41.9152 65.6419 42.263C65.8943 42.613 66.1092 42.9791 66.2817 43.3683C66.4566 43.7552 66.5866 44.1535 66.6766 44.5657C66.764 44.9779 66.809 45.3924 66.809 45.8115Z" fill="white"/>
<path d="M177.597 45.8345C177.597 46.2536 177.552 46.6704 177.465 47.0803C177.375 47.4925 177.242 47.8909 177.07 48.2801C176.895 48.667 176.683 49.0354 176.43 49.3831C176.178 49.7331 175.89 50.0555 175.568 50.3503C175.248 50.6473 174.898 50.9122 174.521 51.1447C174.141 51.3773 173.743 51.5754 173.324 51.7366C172.904 51.8955 172.469 52.0175 172.024 52.0981C171.579 52.181 171.127 52.2224 170.672 52.2224C170.219 52.2224 169.767 52.181 169.322 52.0981C168.877 52.0175 168.442 51.8955 168.023 51.7366C167.603 51.5754 167.205 51.3773 166.825 51.1447C166.448 50.9122 166.098 50.6473 165.778 50.3503C165.456 50.0555 165.168 49.7331 164.916 49.3831C164.664 49.0354 164.451 48.667 164.276 48.2801C164.101 47.8909 163.971 47.4925 163.881 47.0803C163.794 46.6704 163.749 46.2536 163.749 45.8345C163.749 45.4154 163.794 45.0009 163.881 44.5887C163.971 44.1788 164.101 43.7781 164.276 43.3913C164.451 43.0044 164.664 42.636 164.916 42.2882C165.168 41.9382 165.456 41.6158 165.778 41.3188C166.098 41.024 166.448 40.7592 166.825 40.5243C167.205 40.2917 167.603 40.096 168.023 39.9348C168.442 39.7736 168.877 39.6539 169.322 39.571C169.767 39.4904 170.219 39.4489 170.672 39.4489C171.127 39.4489 171.579 39.4904 172.024 39.571C172.469 39.6539 172.904 39.7736 173.324 39.9348C173.743 40.096 174.141 40.2917 174.521 40.5243C174.898 40.7592 175.248 41.024 175.568 41.3188C175.89 41.6158 176.178 41.9382 176.43 42.2882C176.683 42.636 176.895 43.0044 177.07 43.3913C177.242 43.7781 177.375 44.1788 177.465 44.5887C177.552 45.0009 177.597 45.4154 177.597 45.8345Z" fill="white"/>
<path d="M122.26 131.742C122.26 132.161 122.215 132.578 122.128 132.988C122.038 133.4 121.908 133.798 121.733 134.188C121.561 134.575 121.346 134.943 121.093 135.291C120.841 135.641 120.553 135.963 120.234 136.258C119.911 136.555 119.561 136.82 119.184 137.052C118.806 137.285 118.407 137.483 117.987 137.644C117.567 137.803 117.134 137.925 116.687 138.006C116.242 138.089 115.792 138.13 115.337 138.13C114.883 138.13 114.433 138.089 113.985 138.006C113.54 137.925 113.108 137.803 112.688 137.644C112.268 137.483 111.868 137.285 111.491 137.052C111.111 136.82 110.764 136.555 110.441 136.258C110.119 135.963 109.832 135.638 109.579 135.291C109.327 134.943 109.114 134.575 108.939 134.188C108.767 133.798 108.634 133.4 108.547 132.988C108.457 132.578 108.414 132.161 108.414 131.742C108.414 131.323 108.457 130.908 108.547 130.496C108.634 130.086 108.767 129.686 108.939 129.299C109.114 128.912 109.327 128.544 109.579 128.196C109.832 127.846 110.119 127.523 110.441 127.226C110.764 126.932 111.111 126.667 111.491 126.432C111.868 126.199 112.268 126.004 112.688 125.842C113.108 125.681 113.54 125.561 113.985 125.479C114.433 125.398 114.883 125.356 115.337 125.356C115.792 125.356 116.242 125.398 116.687 125.479C117.134 125.561 117.567 125.681 117.987 125.842C118.407 126.004 118.806 126.199 119.184 126.432C119.561 126.667 119.911 126.932 120.234 127.226C120.553 127.523 120.841 127.846 121.093 128.196C121.346 128.544 121.561 128.912 121.733 129.299C121.908 129.686 122.038 130.086 122.128 130.496C122.215 130.908 122.26 131.323 122.26 131.742Z" fill="white"/>
</g>
</g>
<defs>
<filter id="filter0_bd_2_593" x="0" y="-4" width="230.955" height="197.959" filterUnits="userSpaceOnUse" color-interpolation-filters="sRGB">
<feFlood flood-opacity="0" result="BackgroundImageFix"/>
<feGaussianBlur in="BackgroundImageFix" stdDeviation="2"/>
<feComposite in2="SourceAlpha" operator="in" result="effect1_backgroundBlur_2_593"/>
<feColorMatrix in="SourceAlpha" type="matrix" values="0 0 0 0 0 0 0 0 0 0 0 0 0 0 0 0 0 0 127 0" result="hardAlpha"/>
<feOffset dy="4"/>
<feGaussianBlur stdDeviation="2"/>
<feComposite in2="hardAlpha" operator="out"/>
<feColorMatrix type="matrix" values="0 0 0 0 0 0 0 0 0 0 0 0 0 0 0 0 0 0 0.25 0"/>
<feBlend mode="normal" in2="effect1_backgroundBlur_2_593" result="effect2_dropShadow_2_593"/>
<feBlend mode="normal" in="SourceGraphic" in2="effect2_dropShadow_2_593" result="shape"/>
</filter>
<filter id="filter1_i_2_593" x="40.7167" y="28.4164" width="149.295" height="126.087" filterUnits="userSpaceOnUse" color-interpolation-filters="sRGB">
<feFlood flood-opacity="0" result="BackgroundImageFix"/>
<feBlend mode="normal" in="SourceGraphic" in2="BackgroundImageFix" result="shape"/>
<feColorMatrix in="SourceAlpha" type="matrix" values="0 0 0 0 0 0 0 0 0 0 0 0 0 0 0 0 0 0 127 0" result="hardAlpha"/>
<feOffset dy="4"/>
<feGaussianBlur stdDeviation="2"/>
<feComposite in2="hardAlpha" operator="arithmetic" k2="-1" k3="1"/>
<feColorMatrix type="matrix" values="0 0 0 0 0 0 0 0 0 0 0 0 0 0 0 0 0 0 0.25 0"/>
<feBlend mode="normal" in2="shape" result="effect1_innerShadow_2_593"/>
</filter>
<linearGradient id="paint0_linear_2_593" x1="-724.664" y1="92.9797" x2="958.573" y2="92.9797" gradientUnits="userSpaceOnUse">
<stop offset="0.447917" stop-color="#29509C"/>
<stop offset="0.557292" stop-color="#14213D"/>
</linearGradient>
</defs>
</svg>
